<svg width="215" height="230" viewBox="0 0 215 230" fill="none" xmlns="http://www.w3.org/2000/svg">
<path d="M177.335 97.0426C177.124 97.638 176.913 98.2333 176.701 98.8783C175.909 101.111 174.06 102.153 171.736 102.45C169.359 102.748 167.404 101.805 166.031 99.9697C165.714 99.5728 165.502 99.3744 164.921 99.3744C157.05 99.3744 149.179 99.3744 141.308 99.3744C141.044 99.3744 140.833 99.424 140.569 99.424C140.569 99.9697 140.569 100.466 140.569 101.012C140.569 105.923 140.569 110.835 140.516 115.747C140.516 116.243 140.674 116.392 141.203 116.392C144.953 116.342 148.704 116.342 152.455 116.342C152.771 116.342 153.141 116.342 153.458 116.392C155.518 116.59 156.311 117.433 156.258 119.368C156.205 122.99 156.258 126.661 156.205 130.283C156.205 130.829 156.416 131.127 156.839 131.424C159.269 133.061 160.167 135.443 159.427 137.924C158.741 140.156 156.469 141.992 153.722 142.041C150.289 142.141 147.7 139.66 147.436 136.832C147.225 134.451 148.228 132.665 150.289 131.375C150.764 131.077 150.923 130.779 150.923 130.234C150.923 127.554 150.923 124.875 150.923 122.147C150.923 121.948 150.923 121.799 150.87 121.551C147.383 121.551 143.95 121.551 140.463 121.551C140.093 123.635 139.037 125.421 137.452 126.909C135.233 128.993 132.434 129.688 129.37 129.737C127.627 129.787 125.883 129.737 124.034 129.737C124.034 130.035 123.982 130.283 123.982 130.531C123.982 138.568 123.982 146.606 123.982 154.643C123.982 155.139 124.087 155.338 124.668 155.338C130.321 155.338 136.026 155.338 141.678 155.338C142.048 155.338 142.523 155.139 142.682 154.891C144.161 152.907 146.749 152.014 149.285 152.609C151.662 153.204 153.564 155.238 153.775 157.521C154.039 160.448 152.349 162.879 149.443 163.722C146.644 164.516 143.685 163.375 142.206 160.894C142.048 160.696 141.678 160.448 141.414 160.448C135.181 160.448 128.894 160.398 122.661 160.497C119.439 160.547 118.382 159.158 118.435 156.479C118.488 147.896 118.488 139.313 118.488 130.73C118.488 130.432 118.488 130.134 118.488 129.787C113.945 129.787 109.455 129.787 104.859 129.787C104.859 130.184 104.859 130.581 104.859 130.978C104.859 137.824 104.859 144.671 104.859 151.517C104.859 152.46 105.017 153.006 105.862 153.601C108.081 155.139 108.768 157.322 108.081 159.803C107.447 162.035 105.81 163.375 103.432 163.821C100.738 164.367 98.5725 163.375 97.0405 161.341C95.1388 158.761 95.984 155.189 98.8366 153.353C99.1007 153.204 99.3648 152.807 99.3648 152.51C99.3648 144.969 99.3648 137.477 99.3648 129.936C99.3648 129.886 99.312 129.837 99.2592 129.737C99.0479 129.737 98.7838 129.737 98.4668 129.737C93.0258 129.737 87.6376 129.737 82.1965 129.737C81.1929 129.737 81.1929 129.737 81.1929 130.73C81.1929 134.252 81.2457 137.775 81.1929 141.297C81.14 143.48 80.1892 144.274 77.812 144.274C74.2199 144.274 70.6806 144.274 67.0884 144.224C66.1904 144.224 65.5565 144.423 64.9754 145.167C62.9152 147.747 58.9533 148.193 56.3648 146.209C53.6179 144.125 53.1425 140.404 55.414 137.924C58.0024 135.096 62.7567 134.996 65.3452 138.618C65.6093 139.015 65.8734 139.164 66.4017 139.164C69.2543 139.114 72.054 139.114 74.9066 139.114C75.6462 139.114 75.8047 138.916 75.8047 138.221C75.7518 135.592 75.8047 132.962 75.8575 130.333C75.8575 129.638 75.699 129.341 74.9594 129.142C70.6806 127.803 68.2506 124.975 67.7752 120.807C67.511 118.723 67.6167 116.59 67.5639 114.457C67.5639 114.258 67.5639 114.06 67.5639 113.812C57.6327 113.812 47.8071 113.812 37.8759 113.812C37.8759 114.06 37.8231 114.258 37.8231 114.457C37.8231 119.765 37.8231 125.123 37.8231 130.432C37.8231 130.779 38.0872 131.226 38.3513 131.424C40.2531 132.863 41.2039 134.699 40.8341 136.981C40.4644 139.412 38.8796 140.9 36.4496 141.744C33.9668 142.637 30.4275 140.95 29.371 138.767C27.9447 135.84 28.7899 132.913 31.6953 131.127C32.2764 130.779 32.4877 130.432 32.4877 129.787C32.4349 123.784 32.4349 117.781 32.4349 111.778C32.4349 109.495 33.5442 108.553 36.1327 108.503C43.1056 108.503 50.0786 108.503 56.9988 108.503C60.2739 108.503 63.5491 108.503 66.8243 108.503C67.0356 108.503 67.1941 108.503 67.4582 108.454C67.4582 104.187 67.4582 99.9201 67.4582 95.7527C60.5909 95.7527 53.7764 95.7527 46.9091 95.7527C45.0602 95.7527 43.2113 95.7527 41.3624 95.703C40.6757 95.6534 40.2531 95.9015 39.8833 96.3976C38.1929 98.6302 35.9214 99.3744 33.1744 98.779C30.9029 98.2829 29.1069 96.348 28.7371 93.9666C28.3673 91.9325 29.6351 89.4022 31.484 88.3604C34.5479 86.6239 38.0344 87.3681 40.0418 90.196C40.2002 90.3945 40.5172 90.5929 40.7285 90.5929C49.6032 90.5929 58.4779 90.5433 67.2997 90.5433C67.2997 90.5433 67.3526 90.5433 67.511 90.4441C67.511 84.8379 67.511 79.182 67.511 73.4269C67.3526 73.4269 67.1941 73.4269 66.9828 73.4269C62.1757 73.4269 57.4214 73.4765 52.6142 73.4269C50.5012 73.4269 49.4975 72.385 49.4975 70.4005C49.4975 66.7292 49.5504 63.0578 49.5504 59.3865C49.5504 59.0888 49.2862 58.6919 48.9693 58.4935C46.8034 57.0051 45.7997 55.0702 46.2223 52.4903C46.6449 50.0593 48.7051 48.2236 51.6105 47.7771C53.7236 47.4298 56.4177 48.7694 57.527 50.7043C59.1118 53.4826 58.2666 56.757 55.4668 58.4439C54.9914 58.7415 54.8329 59.0392 54.8329 59.5353C54.8329 62.4129 54.8329 65.2904 54.8329 68.2176C55.097 68.2176 55.3612 68.2672 55.5725 68.2672C60.1155 68.2672 64.7113 68.2672 69.2543 68.2672C69.8882 68.2672 70.3108 68.1183 70.7862 67.7214C72.8464 65.985 75.3292 65.1912 78.129 65.1416C79.7137 65.092 81.2985 65.092 82.9361 65.1416C83.4644 65.1416 83.6228 65.0424 83.6228 64.4966C83.6228 55.1198 83.6228 45.7926 83.57 36.4158C83.57 35.7708 83.7813 34.8778 83.4115 34.5305C83.0417 34.1832 82.0909 34.4313 81.4042 34.4313C76.3857 34.4313 71.3145 34.4313 66.2961 34.4313C65.6093 34.4313 65.1867 34.6297 64.7641 35.1258C62.968 37.3584 59.6929 38.0034 56.9988 36.6638C54.4103 35.4235 53.1425 32.4964 54.0405 29.7677C54.8857 27.1878 57.6327 25.5506 60.5909 25.8483C62.7039 26.0467 64.183 27.1382 65.2924 28.7754C65.6093 29.2219 65.8734 29.3212 66.4017 29.3212C72.6879 29.3212 78.9742 29.2715 85.2076 29.2715C88.1658 29.2715 89.1695 30.2638 89.1695 33.0421C89.1695 43.4112 89.1695 53.7803 89.1695 64.1493C89.1695 64.447 89.1695 64.7447 89.1695 65.1416C89.6978 65.1416 90.1732 65.1416 90.6486 65.1416C94.3992 65.1416 98.1499 65.092 101.9 65.1416C102.64 65.1416 102.799 64.9431 102.799 64.2485C102.799 55.7648 102.799 47.2314 102.851 38.7476C102.851 37.5569 102.693 36.7135 101.531 35.9197C99.629 34.5801 98.9951 32.5956 99.4705 30.363C99.9459 28.1801 101.372 26.7413 103.644 26.0467C106.391 25.2033 109.349 26.3444 110.775 28.7258C112.254 31.1568 111.779 34.1336 109.455 35.87C108.504 36.5646 108.292 37.2592 108.292 38.3507C108.345 47.0329 108.345 55.6655 108.345 64.3478C108.345 64.5958 108.345 64.8439 108.345 65.1912C108.821 65.1912 109.19 65.1912 109.56 65.1912C114.843 65.1912 120.125 65.1912 125.408 65.1912C126.253 65.1912 126.412 64.9927 126.412 64.1989C126.359 59.0392 126.412 53.8795 126.412 48.6701C126.412 48.0252 126.57 47.3306 126.834 46.7352C127.362 45.6934 128.472 45.5445 129.581 45.5445C133.332 45.5445 137.135 45.5445 140.886 45.5445C141.572 45.5445 142.048 45.3461 142.418 44.8003C143.897 42.7662 146.485 41.9724 149.074 42.5678C151.398 43.1135 153.141 45.0484 153.511 47.3802C153.881 49.7616 152.719 51.895 150.447 53.1353C147.489 54.7229 143.95 53.8795 142.101 51.1508C141.942 50.9027 141.467 50.6546 141.15 50.6546C138.297 50.605 135.445 50.6546 132.539 50.6546C131.905 50.6546 131.694 50.8531 131.694 51.4484C131.694 55.9136 131.694 60.3787 131.694 64.8439C131.694 65.2904 131.853 65.4393 132.328 65.5385C136.818 66.4315 140.41 70.599 140.146 74.7665C140.093 76.1556 140.146 75.9076 141.308 75.9076C149.866 75.9076 158.424 75.9076 166.982 75.9076C167.193 75.9076 167.404 75.9075 167.721 75.8579C167.721 75.5603 167.721 75.2626 167.721 74.9649C167.721 69.7556 167.721 64.5958 167.721 59.3865C167.721 58.8408 167.615 58.5431 167.087 58.1958C164.974 56.757 164.076 54.2268 164.869 51.8454C165.608 49.5136 167.932 47.6779 170.521 47.6779C173.585 47.6779 176.015 49.6128 176.49 51.895C176.596 52.2919 176.754 52.6392 176.913 53.0361C176.913 53.3337 176.913 53.681 176.913 53.9787C176.86 54.0779 176.754 54.1772 176.754 54.326C176.385 56.3105 175.222 57.7493 173.373 58.7911C173.162 58.8904 173.004 59.2873 173.004 59.5353C173.004 65.6873 173.004 71.8393 173.056 77.9913C173.056 79.7773 172.106 80.8192 170.257 80.9681C169.253 81.0673 168.302 81.0673 167.299 81.0673C158.529 81.0673 149.813 81.0673 141.044 81.0673C140.305 81.0673 140.146 81.2657 140.146 81.9603C140.199 85.6813 140.199 89.4022 140.146 93.1232C140.146 93.7681 140.305 93.917 140.991 93.917C148.545 93.917 156.099 93.917 163.706 93.9666C164.604 93.9666 165.238 93.8178 165.767 93.0736C167.298 91.0395 169.517 90.2953 172.053 90.841C174.588 91.3867 176.12 92.8751 176.596 95.3062C176.649 95.5046 176.807 95.703 176.913 95.8519C177.335 96.4472 177.335 96.7449 177.335 97.0426ZM104.225 124.776C112.835 124.727 121.446 124.727 130.056 124.776C131.8 124.776 133.173 124.23 134.018 122.841C134.547 121.998 134.864 120.906 134.969 119.914C135.128 118.525 134.969 117.086 134.969 115.647C134.969 104.286 134.969 92.9743 134.969 81.613C134.969 79.5293 135.022 77.4455 135.022 75.3122C134.969 72.0378 132.962 70.2021 129.475 70.2517C128.366 70.2517 127.204 70.3509 126.095 70.3509C111.409 70.3509 96.7764 70.3509 82.0909 70.3509C80.7174 70.3509 79.344 70.2517 77.9705 70.3013C75.7518 70.3509 74.0086 71.7897 73.6388 73.8734C73.4803 74.6672 73.4803 75.5106 73.4803 76.3541C73.4803 89.6007 73.4803 102.897 73.4803 116.144C73.4803 117.533 73.4275 118.922 73.5332 120.311C73.586 121.055 73.7445 121.799 74.1142 122.444C75.0123 124.131 76.597 124.727 78.5516 124.727C87.0565 124.776 95.6671 124.776 104.225 124.776Z" fill="#4D4D4D"/>
<path d="M104.172 85.4332C107.5 85.4332 110.828 85.4332 114.156 85.4332C114.79 85.4332 115.424 85.4828 116.005 85.6316C117.114 85.9293 117.907 87.0704 117.907 88.3603C117.907 93.6689 117.907 98.9278 117.907 104.236C117.907 105.03 117.907 105.774 117.907 106.568C117.907 108.404 116.797 109.595 114.843 109.743C113.998 109.793 113.205 109.793 112.36 109.793C106.655 109.793 100.897 109.793 95.1917 109.793C94.6106 109.793 93.9767 109.793 93.3956 109.694C91.4411 109.495 90.5959 108.553 90.4902 106.767C90.4374 106.122 90.4374 105.477 90.4374 104.832C90.4374 99.4736 90.4374 94.1154 90.4902 88.8068C90.4902 88.3603 90.543 87.8642 90.6487 87.4177C90.9128 86.4254 91.5995 85.7308 92.7089 85.5324C93.2371 85.4332 93.7654 85.3835 94.2408 85.3835C97.5688 85.4332 100.897 85.4332 104.172 85.4332Z" fill="#4D4D4D"/>
<path d="M34.1997 219V201.48H39.8697V198.09H24.7797V201.48H30.4497V219H34.1997ZM39.1722 211.56C39.1722 213.93 39.9222 215.82 41.3922 217.23C42.8622 218.64 44.8122 219.36 47.1822 219.36C49.7322 219.36 51.8322 218.46 53.5422 216.66L51.3822 214.56C50.2122 215.73 48.8622 216.3 47.3022 216.3C44.6322 216.3 42.8622 214.74 42.7422 212.34H54.5022C54.5322 211.95 54.5622 211.53 54.5622 211.08C54.5622 208.92 53.8722 207.12 52.4622 205.65C51.0822 204.18 49.2822 203.46 47.0922 203.46C44.7822 203.46 42.8922 204.18 41.3922 205.65C39.9222 207.12 39.1722 209.04 39.1722 211.44V211.56ZM42.8322 209.82C42.9222 208.89 43.3722 208.11 44.1822 207.48C44.9922 206.85 45.9822 206.52 47.0922 206.52C48.1422 206.52 49.0122 206.85 49.7622 207.51C50.5122 208.14 50.9022 208.92 50.9022 209.82H42.8322ZM64.5309 203.4C62.2209 203.4 60.2709 204.18 58.6809 205.71C57.0909 207.24 56.3109 209.13 56.3109 211.41C56.3109 213.69 57.0909 215.61 58.6809 217.14C60.2709 218.67 62.2209 219.42 64.5309 219.42C66.9609 219.42 68.9709 218.55 70.5909 216.81L68.3709 214.5C67.3209 215.61 66.0309 216.15 64.5309 216.15C63.2109 216.15 62.1009 215.7 61.2009 214.8C60.3309 213.9 59.8809 212.76 59.8809 211.41C59.8809 210.06 60.3309 208.92 61.2009 208.02C62.1009 207.12 63.2109 206.67 64.5309 206.67C66.0309 206.67 67.3209 207.21 68.3709 208.32L70.5909 206.01C68.9709 204.27 66.9609 203.4 64.5309 203.4ZM76.3612 219V210.3C76.3612 208.23 77.8312 206.79 79.8712 206.79C81.8812 206.79 83.0812 208.08 83.0812 210.15V219H86.6812V209.64C86.6812 205.89 84.5512 203.58 80.9512 203.58C78.7912 203.58 77.0812 204.57 76.3612 206.04V203.88H72.7912V219H76.3612ZM91.4648 217.14C93.0548 218.67 95.0048 219.45 97.3148 219.45C99.6248 219.45 101.575 218.67 103.165 217.14C104.755 215.61 105.565 213.69 105.565 211.44C105.565 209.19 104.755 207.27 103.165 205.74C101.575 204.21 99.6248 203.43 97.3148 203.43C95.0048 203.43 93.0548 204.21 91.4648 205.74C89.8748 207.27 89.0648 209.19 89.0648 211.44C89.0648 213.69 89.8748 215.61 91.4648 217.14ZM97.3148 216.18C95.9648 216.18 94.8548 215.73 93.9548 214.83C93.0848 213.9 92.6348 212.79 92.6348 211.44C92.6348 210.09 93.0848 208.98 93.9548 208.08C94.8548 207.15 95.9648 206.7 97.3148 206.7C98.6348 206.7 99.7448 207.15 100.645 208.08C101.545 208.98 101.995 210.09 101.995 211.44C101.995 212.79 101.545 213.9 100.645 214.83C99.7448 215.73 98.6348 216.18 97.3148 216.18ZM111.694 219V198.09H108.094V219H111.694ZM116.601 217.14C118.191 218.67 120.141 219.45 122.451 219.45C124.761 219.45 126.711 218.67 128.301 217.14C129.891 215.61 130.701 213.69 130.701 211.44C130.701 209.19 129.891 207.27 128.301 205.74C126.711 204.21 124.761 203.43 122.451 203.43C120.141 203.43 118.191 204.21 116.601 205.74C115.011 207.27 114.201 209.19 114.201 211.44C114.201 213.69 115.011 215.61 116.601 217.14ZM122.451 216.18C121.101 216.18 119.991 215.73 119.091 214.83C118.221 213.9 117.771 212.79 117.771 211.44C117.771 210.09 118.221 208.98 119.091 208.08C119.991 207.15 121.101 206.7 122.451 206.7C123.771 206.7 124.881 207.15 125.781 208.08C126.681 208.98 127.131 210.09 127.131 211.44C127.131 212.79 126.681 213.9 125.781 214.83C124.881 215.73 123.771 216.18 122.451 216.18ZM123.741 202.44L126.651 198.09H122.571L121.041 202.44H123.741ZM140.611 215.94C139.321 215.94 138.271 215.52 137.401 214.65C136.561 213.78 136.141 212.67 136.141 211.38C136.141 210.09 136.561 209.01 137.401 208.14C138.271 207.27 139.321 206.82 140.611 206.82C141.901 206.82 143.011 207.27 143.881 208.14C144.781 209.01 145.231 210.09 145.231 211.38C145.231 212.67 144.781 213.78 143.881 214.65C143.011 215.52 141.901 215.94 140.611 215.94ZM140.131 203.55C138.001 203.55 136.231 204.3 134.761 205.83C133.291 207.33 132.571 209.19 132.571 211.38C132.571 213.57 133.291 215.43 134.731 216.9C136.201 218.37 138.001 219.12 140.131 219.12C142.531 219.12 144.331 218.19 145.051 216.9V217.65C145.051 219.51 144.571 220.8 143.611 221.49C142.801 222.09 141.691 222.39 140.281 222.39C138.481 222.39 136.741 221.85 135.091 220.74L133.351 223.41C135.421 224.88 137.851 225.6 140.671 225.6C142.801 225.6 144.571 225.03 146.011 223.92C148.051 222.33 148.561 220.11 148.561 216.48V203.88H144.961V206.07C144.451 204.6 142.621 203.55 140.131 203.55ZM153.488 202.11C154.658 202.11 155.618 201.18 155.618 199.98C155.618 198.78 154.658 197.85 153.488 197.85C152.288 197.85 151.328 198.78 151.328 199.98C151.328 201.18 152.288 202.11 153.488 202.11ZM155.288 219V203.88H151.688V219H155.288ZM166.015 203.4C163.705 203.4 161.755 204.18 160.165 205.71C158.575 207.24 157.795 209.13 157.795 211.41C157.795 213.69 158.575 215.61 160.165 217.14C161.755 218.67 163.705 219.42 166.015 219.42C168.445 219.42 170.455 218.55 172.075 216.81L169.855 214.5C168.805 215.61 167.515 216.15 166.015 216.15C164.695 216.15 163.585 215.7 162.685 214.8C161.815 213.9 161.365 212.76 161.365 211.41C161.365 210.06 161.815 208.92 162.685 208.02C163.585 207.12 164.695 206.67 166.015 206.67C167.515 206.67 168.805 207.21 169.855 208.32L172.075 206.01C170.455 204.27 168.445 203.4 166.015 203.4ZM175.781 217.14C177.371 218.67 179.321 219.45 181.631 219.45C183.941 219.45 185.891 218.67 187.481 217.14C189.071 215.61 189.881 213.69 189.881 211.44C189.881 209.19 189.071 207.27 187.481 205.74C185.891 204.21 183.941 203.43 181.631 203.43C179.321 203.43 177.371 204.21 175.781 205.74C174.191 207.27 173.381 209.19 173.381 211.44C173.381 213.69 174.191 215.61 175.781 217.14ZM181.631 216.18C180.281 216.18 179.171 215.73 178.271 214.83C177.401 213.9 176.951 212.79 176.951 211.44C176.951 210.09 177.401 208.98 178.271 208.08C179.171 207.15 180.281 206.7 181.631 206.7C182.951 206.7 184.061 207.15 184.961 208.08C185.861 208.98 186.311 210.09 186.311 211.44C186.311 212.79 185.861 213.9 184.961 214.83C184.061 215.73 182.951 216.18 181.631 216.18Z" fill="#4D4D4D"/>
</svg>
